<?xml version="1.0" encoding="utf-8"?>
<!-- Generator: Adobe Illustrator 26.0.3, SVG Export Plug-In . SVG Version: 6.00 Build 0)  -->
<svg version="1.1" id="Layer_1" xmlns="http://www.w3.org/2000/svg" xmlns:xlink="http://www.w3.org/1999/xlink" x="0px" y="0px"
	 viewBox="0 0 179 59.5" style="enable-background:new 0 0 179 59.5;" xml:space="preserve">
<style type="text/css">
	.st0{fill:#008D36;}
	.st1{fill:#F8B133;}
	.st2{fill:#E20613;}
</style>
<path class="st0" d="M31.3,9.6c-16.2,0-20.2,17.2-20.2,17.2c0,0.7,0.2,23.3,0.2,23.3h17.2v-8.8c-5.8-1.3-10.2-6.5-10.2-12.7
	c0-7.2,5.8-13,13-13c7.2,0,13,5.8,13,13c0,6.3-4.4,11.5-10.3,12.7v8.7h17.1v-24C51.1,26.1,47.5,9.6,31.3,9.6"/>
<path class="st1" d="M98.1,28.6c0,4.7-3.8,8.6-8.6,8.6c-4.7,0-8.6-3.8-8.6-8.6s3.8-8.6,8.6-8.6C94.2,20,98.1,23.9,98.1,28.6"/>
<path class="st0" d="M39.8,28.6c0,4.7-3.8,8.6-8.6,8.6c-4.7,0-8.6-3.8-8.6-8.6s3.8-8.6,8.6-8.6C35.9,20,39.8,23.9,39.8,28.6"/>
<path class="st1" d="M68.8,8.9v41.7h17.9v-9.3c-5.8-1.3-10.2-6.5-10.2-12.7c0-7.2,5.8-13,13-13c7.2,0,13,5.8,13,13
	c0,6.3-4.4,11.5-10.3,12.7v9.2h18.1V8.9H68.8z"/>
<path class="st2" d="M155.9,34.8c-3.4,3.4-8.8,3.4-12.1,0c-3.4-3.4-3.4-8.8,0-12.1c3.4-3.4,8.8-3.4,12.1,0
	C159.3,26,159.3,31.5,155.9,34.8"/>
<path class="st2" d="M149.1,0.2l-29.5,29.5l12.6,12.6l6.6-6.6c-3.2-5-2.6-11.8,1.8-16.2c5.1-5.1,13.3-5.1,18.4,0
	c5.1,5.1,5.1,13.3,0,18.4c-4.4,4.4-11.3,5-16.3,1.7l-6.5,6.5L149,59l29.5-29.5L149.1,0.2z"/>
</svg>
