<?xml version="1.0" encoding="utf-8"?>
<!-- Generator: Adobe Illustrator 25.4.1, SVG Export Plug-In . SVG Version: 6.00 Build 0)  -->
<svg version="1.1" id="Layer_1" xmlns="http://www.w3.org/2000/svg" xmlns:xlink="http://www.w3.org/1999/xlink" x="0px" y="0px"
	 viewBox="0 0 353.1 193.1" style="enable-background:new 0 0 353.1 193.1;" xml:space="preserve">
<style type="text/css">
	.st0{fill:#FFFFFF;}
</style>
<g>
	<path class="st0" d="M13.8,67.6l-2.3,23.5H0L10.9,0h16.5l11.1,91.1h-12l-2.3-23.5H13.8z M19.1,11.9l-4.4,45.9h8.9L19.1,11.9z"/>
	<path class="st0" d="M55.9,69.4v21.7H44.4V0h11.5v48.5L69.6,0h11.6L68.8,40.4l13.2,50.7H70l-8.4-37.3L55.9,69.4z"/>
	<path class="st0" d="M98.6,67.6l-2.3,23.5H84.8L95.7,0h16.5l11.1,91.1h-12l-2.3-23.5H98.6z M103.9,11.9l-4.4,45.9h8.9L103.9,11.9z"
		/>
	<path class="st0" d="M163.4,7.2v76.7l-7.2,7.2h-27V0h27L163.4,7.2z M151.9,78.8V12.2l-2.4-2.4h-8.7v71.4h8.7L151.9,78.8z"/>
	<path class="st0" d="M171.8,0h28.4v9.8h-16.9V40H198v9.8h-14.7v31.4h17.1v9.8h-28.6V0z"/>
	<path class="st0" d="M226.8,91.1l-9-71.4v71.4h-10.4V0H224l8.5,73.6L241,0h17v91.1h-10.9V19.6l-9,71.4H226.8z"/>
	<path class="st0" d="M266.8,0h11.5v91.1h-11.5V0z"/>
	<path class="st0" d="M287,0h28.4v9.8h-16.9V40h14.7v9.8h-14.7v31.4h17.1v9.8H287V0z"/>
</g>
<g>
	<path class="st0" d="M78.1,109.9V186l-7.1,7.1H44.2v-90.3H71L78.1,109.9z M66.7,181v-66.1l-2.4-2.4h-8.7v70.9h8.7L66.7,181z"/>
	<path class="st0" d="M85.6,102.8h28.2v9.7H97v30h14.6v9.7H97v31.1h17v9.7H85.6V102.8z"/>
	<path class="st0" d="M139.5,112.3v80.8H128v-80.8h-10.8v-9.5h33v9.5H139.5z"/>
	<path class="st0" d="M155.3,102.8h28.2v9.7h-16.8v30h14.6v9.7h-14.6v31.1h17v9.7h-28.4V102.8z"/>
	<path class="st0" d="M201.2,171.6v21.5h-11.4v-90.3h11.4v48.1l13.6-48.1h11.5l-12.4,40.1l13.1,50.3h-11.9l-8.3-37L201.2,171.6z"/>
	<path class="st0" d="M250.9,112.3v80.8h-11.4v-80.8h-10.8v-9.5h33v9.5H250.9z"/>
	<path class="st0" d="M266.7,102.8h11.4v90.3h-11.4V102.8z"/>
	<path class="st0" d="M293.4,193.1l-10.3-90.3h11.2l7.4,76.9l7.4-76.9h10.7l-10.3,90.3H293.4z"/>
	<path class="st0" d="M324.7,102.8h28.2v9.7h-16.8v30h14.6v9.7h-14.6v31.1h17v9.7h-28.4V102.8z"/>
</g>
<g>
	<path class="st0" d="M11.4,104.3v24.8l-2.3,2.3H0.4V102h8.7L11.4,104.3z M7.7,127.5v-21.5L7,105.2H4.1v23.1H7L7.7,127.5z"/>
	<path class="st0" d="M14.3,102h9.2v3.2H18v9.8h4.8v3.2H18v10.1h5.5v3.2h-9.2V102z"/>
	<path class="st0" d="M25.8,102h8.6l2.3,2.3v12.2l-2.1,2.1l2.3,12.8h-3.6l-2.3-12.5h-1.6v12.5h-3.7V102z M33,115.1v-9.2l-0.8-0.8
		h-2.7v10.8h2.7L33,115.1z"/>
</g>
</svg>
