<svg xmlns="http://www.w3.org/2000/svg" xmlns:xlink="http://www.w3.org/1999/xlink" viewBox="0 0 591.7629 578.6804"><defs><style>.cls-1{fill:url(#radial-gradient);}.cls-2{fill:#fff;}.cls-3{fill:#565656;}.cls-4{fill:#c1c1c1;opacity:0.33;}.cls-5{fill:#939393;}.cls-6{fill:#afafaf;}.cls-7{fill:#161616;}.cls-8{fill:#3f3f3f;}.cls-9{fill:#c6c6c6;}.cls-10{fill:#424242;}.cls-11{fill:#878787;}</style><radialGradient id="radial-gradient" cx="323.9576" cy="269.7532" r="244.4533" gradientUnits="userSpaceOnUse"><stop offset="0" stop-color="#5896ff"/><stop offset="0.1928" stop-color="#5896ff" stop-opacity="0.7474"/><stop offset="0.4095" stop-color="#5896ff" stop-opacity="0.4904"/><stop offset="0.6067" stop-color="#5896ff" stop-opacity="0.2864"/><stop offset="0.777" stop-color="#5896ff" stop-opacity="0.1396"/><stop offset="0.9138" stop-color="#5896ff" stop-opacity="0.0497"/><stop offset="1" stop-color="#5896ff" stop-opacity="0.0168"/><stop offset="1" stop-color="#5896ff" stop-opacity="0"/></radialGradient></defs><g id="stars"><circle class="cls-1" cx="323.9576" cy="269.7532" r="244.4533"/><path class="cls-2" d="M406.6,10.2754l10.5434,142.1682a2.3586,2.3586,0,0,0,4.5941.5579l44.26-135.5139a2.3586,2.3586,0,0,1,4.5675,1.1258l-23.7861,140.56a2.3585,2.3585,0,0,0,4.3271,1.641l75.4046-120.984a2.3586,2.3586,0,0,1,4.1654,2.1862L473.9427,172.8a2.3586,2.3586,0,0,0,3.8087,2.6289L579.9182,76.0064a2.3586,2.3586,0,0,1,3.5211,3.12l-86.3831,113.406a2.3586,2.3586,0,0,0,3.0688,3.464l122.9915-72.0837a2.3585,2.3585,0,0,1,2.6723,3.8714L514.776,217.2215a2.3585,2.3585,0,0,0,2.1506,4.0977L653.595,180.7639a2.3586,2.3586,0,0,1,1.6681,4.3985L526.0723,245.4342a2.3586,2.3586,0,0,0,1.1075,4.4934l142.4025-6.67a2.3586,2.3586,0,0,1,.5671,4.67l-139.8609,27.603a2.3586,2.3586,0,0,0,0,4.6279l139.8609,27.603a2.3586,2.3586,0,0,1-.5671,4.67l-142.4025-6.67a2.3586,2.3586,0,0,0-1.1075,4.4934l129.1908,60.2718a2.3586,2.3586,0,0,1-1.6681,4.3985L516.9266,334.37a2.3585,2.3585,0,0,0-2.1506,4.0977l111.0128,89.4379a2.3585,2.3585,0,0,1-2.6723,3.8714L500.125,359.693a2.3586,2.3586,0,0,0-3.0688,3.464l86.3831,113.406a2.3586,2.3586,0,0,1-3.5211,3.12L477.7514,380.26a2.3586,2.3586,0,0,0-3.8087,2.6289L530.6759,513.672a2.3586,2.3586,0,0,1-4.1654,2.1861L451.1059,394.8742a2.3585,2.3585,0,0,0-4.3271,1.641l23.7861,140.56a2.3586,2.3586,0,0,1-4.5675,1.1258l-44.26-135.5139a2.3586,2.3586,0,0,0-4.5941.5578L406.6,545.4135a2.3586,2.3586,0,0,1-4.7042,0L391.3522,403.2452a2.3586,2.3586,0,0,0-4.5941-.5578l-44.26,135.5139a2.3585,2.3585,0,0,1-4.5674-1.1258l23.786-140.56a2.3585,2.3585,0,0,0-4.3271-1.641L281.9848,515.8581a2.3585,2.3585,0,0,1-4.1653-2.1861l56.7331-130.7835a2.3585,2.3585,0,0,0-3.8086-2.6289L228.5771,479.6825a2.3586,2.3586,0,0,1-3.5211-3.12l86.3831-113.406a2.3586,2.3586,0,0,0-3.0688-3.464L185.3788,431.7767a2.3585,2.3585,0,0,1-2.6723-3.8714l111.0128-89.4379a2.3585,2.3585,0,0,0-2.1506-4.0977L154.9,374.925a2.3586,2.3586,0,0,1-1.6681-4.3985l129.1909-60.2718a2.3586,2.3586,0,0,0-1.1075-4.4934l-142.4026,6.67a2.3586,2.3586,0,0,1-.567-4.67l139.8608-27.603a2.3586,2.3586,0,0,0,0-4.6279L138.346,247.9275a2.3586,2.3586,0,0,1,.567-4.67l142.4026,6.67a2.3586,2.3586,0,0,0,1.1075-4.4934L153.2322,185.1624a2.3586,2.3586,0,0,1,1.6681-4.3985l136.6684,40.5553a2.3585,2.3585,0,0,0,2.1506-4.0977L182.7065,127.7836a2.3585,2.3585,0,0,1,2.6723-3.8714L308.37,195.9959a2.3586,2.3586,0,0,0,3.0688-3.464L225.056,79.1259a2.3586,2.3586,0,0,1,3.5211-3.12L330.744,175.4293a2.3585,2.3585,0,0,0,3.8086-2.6289L277.82,42.0169a2.3585,2.3585,0,0,1,4.1653-2.1862l75.4046,120.984a2.3585,2.3585,0,0,0,4.3271-1.641l-23.786-140.56a2.3585,2.3585,0,0,1,4.5674-1.1258l44.26,135.5139a2.3586,2.3586,0,0,0,4.5941-.5579L401.8956,10.2754A2.3586,2.3586,0,0,1,406.6,10.2754Z" transform="translate(-80.29 -8.0913)"/></g><g id="maface"><path class="cls-2" d="M657.3253,456.75c-1.8485-4.4835-5.8274-8.0163-10.2947-12.1495a71.1752,71.1752,0,0,0-16.856-11.3108c-7.7545-3.8808-15.2772-3.9635-35.7209-8-37.6279-7.4293-54.3255-9.1163-61.3952-10.7907a58.6748,58.6748,0,0,1-5.6648-3.0262l.2666-.9354a2.3733,2.3733,0,0,0-1.8014-2.9748l-34.2519-7.0895a2.3734,2.3734,0,0,0-2.6619,1.3875h0a18.1123,18.1123,0,0,1-4.0636-.932,23.0055,23.0055,0,0,0-6.4845-1.4268c-4.2895-.98-14.5284-14.4973-16.4082-40.0725-1.0792-14.6841,1.066-26.9642,2.7907-36.8371,2.5327-14.4978,4.4054-15.5376,5.0233-26.2325.6825-11.8126-1.4435-13.2862-1.1163-29.5814.2072-10.3151,1.0824-10.8833,1.1163-22.3255.0348-11.7762.0523-17.6643-1.6744-22.3255-2.7613-7.454-6.7336-10.4123-6.14-17.3023.2066-2.3958.8125-3.4953,1.3227-8.5054a62.6411,62.6411,0,0,0,.3518-9.9132,61.8224,61.8224,0,0,0-2.2326-12.8372c-3.0481-10.2948-7.7349-12.7929-12.6507-22.4828-5.5668-10.9732-2.4191-13.4125-8.7845-31.924-1.7394-5.0584-4.58-13.3206-7.4019-17.7791-14.6382-23.1306-43.2756-28.9583-51.8188-28.5322-66.69,3.3265-101.7027,31.23-135.3436,81.3693-15.6311,23.2969-19.979,45.1256-22.6977,59.5348-1.502,7.9606-14.8058,81.964,14.1395,99.7207,5.613,3.4433,18.4808,8.2475,22.8075,20.4219.8485,2.3876,1.18,4.8409,1.8444,9.7474,1.4629,10.8108.4488,15.1793.8349,25.2835a117.1619,117.1619,0,0,0,2.8465,23.2874c.3729,1.606,1.5355,8.2334,3.8608,21.4881.57,3.248,1.3291,7.8744-.9383,9.539-1.4044,1.031-2.955.1806-5.9535.372-3.6563.2334-6.2454,1.81-9.3023,3.721-6.0182,3.7621-9.0273,5.6431-14.8837,13.3953-10.9224,14.4581-39.7441,7.7948-76.651,24.93-24.5144,11.3816-35.4718,25.3127-39.2389,30.5563-3.5909,4.9984-3.2757,5.76-9.1331,16.3273-15.7978,28.5-28.7822,42.2617-31.938,51.1193h0v0c-.9482,2.6614-1.02,4.8854,0,6.9268v16.18H667.8V489.8478S659.1738,461.2335,657.3253,456.75Z" transform="translate(-80.29 -8.0913)"/><path class="cls-3" d="M465.13,192.0028l22.27-6.673.6008,5.75-21.9186,4.6518a1.9259,1.9259,0,0,1-2.2989-2.2049h0A1.9262,1.9262,0,0,1,465.13,192.0028Z" transform="translate(-80.29 -8.0913)"/><path class="cls-4" d="M412.7344,452.84a75.0268,75.0268,0,0,1-18.0228,13.3883,163.7473,163.7473,0,0,0-19.0526-42.74c-3.4266-5.4157-30.9794-48.2381-49.9489-42.74-8.39,2.4319-10.9343,13.1083-15.4481,11.8436-4.676-1.31-2.2852-12.8619-8.239-28.3216-4.4472-11.5477-13.8085-25.9462-20.5975-24.7169-5.4831.9928-7.7536,11.9016-9.7838,22.1423-5.816,29.3375-.532,51.611-2.5747,52.0086-1.6346.3181-1.9607-12.9669-4.6343-25.4894-1.1416-5.3467-2.6769-20.3786-2.5748-38.86.0639-11.5508-4.3769-19.07-3.7559-28.5782.1984-3.0365,9.5832-6.62,14.043-6.4548,7.0829.262,6.87-8.6115,16.49-10.8137,10.5482-2.4148,14.7881,27.9712,42.2248,47.3742,13.193,9.33,33.5123,14.9739,74.1509,26.2618,16.6824,4.6337,22.5407,5.6219,26.7767,11.8435C442.486,404.7011,430.1751,435.2036,412.7344,452.84Z" transform="translate(-80.29 -8.0913)"/><path class="cls-5" d="M200.58,445.63c-22.7525,7.11-35.0022,10.2378-49.9488,21.1124-18.7084,13.6114-31.1278,31.71-29.8663,32.9559,1.0879,1.0747,12.2932-10.4433,23.6871-18.5378,18.1449-12.89,47.8452-24.9676,98.3529-20.5974,0,0,3.417-17.848,4.896-22.1423a62.0076,62.0076,0,0,1,5.107-10.0617C233.7011,435.1332,212.6245,441.8668,200.58,445.63Z" transform="translate(-80.29 -8.0913)"/><path class="cls-6" d="M469.8925,397.7412c-17.7078-3.5358-26.6278-5.28-29.8664-4.1194-12.3867,4.439-7.9323,21.0975-24.717,48.404-10.8559,17.6611-22.6717,26.8839-25.2319,28.8364A97.5659,97.5659,0,0,1,359.696,486.31a110.136,110.136,0,0,1-58.7029,2.5748c-13.503-3.2165-23.2331-5.5342-27.8066-13.9034-4.8723-8.9162-3.888-24.6943-2.06-32.441a32.3607,32.3607,0,0,0,1.0183-7.724,33.3247,33.3247,0,0,0-2.563-12.8735c-2.3087.8618-.0687.0386-2.3087.8618L265.8547,438.11c-.07,1.7791-.9416,4.9232-1.422,10.61-.3327,3.9376-.2478,7.9011-.5149,11.8436-2.4547,36.2177-2.06,58.7028-2.06,58.7028s23.9339,3.6045,179.7129-3.09a350.5224,350.5224,0,0,1,15.4481-41.195c8.3156-18.4975,15.0567-29.0737,24.202-52.0086,3.5523-8.9085,6.1268-16.32,7.7241-21.1124C484.53,400.8318,477.9388,399.3479,469.8925,397.7412Z" transform="translate(-80.29 -8.0913)"/><path class="cls-5" d="M207.7,276.6714c-.5707-9.0776,3.1993-20.52,8.2389-21.1124,6.6927-.7865,7.0377,18.5724,25.232,40.68,13.0051,15.8024,23.2849,18.6164,29.3513,35.5307,3.3419,9.3179,4.0357,19.0966,2.5747,19.5676-1.2942.4171-3.3953-6.7543-9.7838-13.9033-5.6592-6.333-9.8075-7.1927-18.0228-12.3585a105.7471,105.7471,0,0,1-30.8962-31.4111C208.476,284.128,207.8493,279.0465,207.7,276.6714Z" transform="translate(-80.29 -8.0913)"/><path class="cls-6" d="M235.0812,237.5959c4.8073,1.4068,7.8839,2.3071,8.754,4.6344,1.0843,2.9006-2.4681,4.7821-2.06,8.239.556,4.7074,7.9129,7.7326,11.8435,8.754a27.4691,27.4691,0,0,0,25.2319-6.6942c1.59-1.5415,4.6164-4.8975,8.754-24.2021,3.9836-18.5862,5.9074-28.0736,2.5746-37.59-1.0981-3.1358-5.1554-14.7216-13.9032-16.993-3.16-.82-4.6143.1762-6.1793-1.03-6.6059-5.091,9.639-30.3014,5.6643-33.4709-5.1071-4.0727-48.0281,24.7108-56.643,67.9716-3.3783,16.9646-1.1744,34.616,1.5448,35.0157,1.4512.2134,2.6335-4.548,7.2091-5.6643C229.8843,236.0751,231.6166,236.5821,235.0812,237.5959Z" transform="translate(-80.29 -8.0913)"/><path class="cls-7" d="M448.78,151.0865c-.95.2987-2.9312-5.6858-8.239-14.9331-6.1414-10.7-10.0617-17.53-16.9929-22.1424-8.986-5.98-18.9086-5.4882-25.7469-5.1493-13.2807.6582-22.65,5.2616-35.5306,11.8435-31.91,16.3065-35.2476,19.145-48.919,25.7469-34.0726,16.4535-35.4763,9.5106-48.404,20.5975-9.7271,8.3418-17.47,21.3526-32.956,47.3742-5.9962,10.0755-11.2876,20.0606-11.8435,21.1124-3.9256,7.4269-7.1823,14.0561-9.7838,19.5675a84.4066,84.4066,0,0,1-18.0228-20.0825c-13.2365-20.69-13.4191-41.3038-13.3884-48.4041.0284-6.5556.0608-14.02,3.09-23.1721,5.3351-16.1214,15.9854-25.45,31.4112-38.62a226.6513,226.6513,0,0,1,35.0157-24.717,216.9569,216.9569,0,0,1,70.0314-24.717c16.468-2.7319,30.1178-2.9336,40.68-3.09,12.199-.18,18.2984-.27,24.202,1.03,18.8292,4.1469,30.878,16.0505,39.65,24.7169,6.5458,6.4669,16.47,16.4832,22.1423,32.4411C448.6275,140.2012,450.0026,150.7022,448.78,151.0865Z" transform="translate(-80.29 -8.0913)"/><path class="cls-8" d="M268.5222,154.2359c-1.59-3.2565,18.2583-13.2563,54.5833-40.1651,17.7971-13.1836,35.64-26.3346,54.0684-38.62,0,0,16.606-13.0623,33.4709-15.963a83.328,83.328,0,0,1,10.8137-1.03,60.3281,60.3281,0,0,1,16.4779,1.5449,56.6177,56.6177,0,0,1,20.0826,9.7837c6.4574,4.6345,9.6861,6.9517,11.8435,10.8137,7.3524,13.1608-1.3251,33.977-13.9033,45.3145a46.1316,46.1316,0,0,1-11.8435,7.724c-1.587-2.776-3.9849-6.7524-7.2091-11.3286-.9393-1.3331-6.6663-9.4616-10.2988-12.8734-9.3969-8.8262-26.146-6.16-35.0157-4.6344-10.7077,1.841-16.6983,4.7537-52.5236,23.6871-19.6991,10.4108-26.7366,14.2066-38.62,18.5377C297.0788,148.2548,270.3164,157.91,268.5222,154.2359Z" transform="translate(-80.29 -8.0913)"/><path class="cls-2" d="M282.97,297.3286c1.5309,3.8917,3.525,7.2716,2.5746,11.8435-1.38,6.6382-7.8265,10.3036-8.7539,10.8137-9.3673,5.1517-20.6236.3469-26.2618-2.06C232.9566,310.4251,224.36,295.1825,219.1182,286a74.1048,74.1048,0,0,1-8.7539-24.2021c-1.3475-8-.7088-13.011.5149-16.9929,1.1095-3.6106,1.9023-6.1906,4.12-8.239,8.3939-7.7551,27.5416,1.0348,30.8962,2.5747,3.59,1.6479,8.0575,4.7032,16.9929,10.8137,9.8957,6.7671,14.8436,10.1507,15.963,11.8435C285.9488,272.5311,276.268,280.2913,282.97,297.3286Z" transform="translate(-80.29 -8.0913)"/><path d="M459.5937,327.7235c.74-.116,1.4647-2.5395,1.03-13.917a58.1028,58.1028,0,0,1,18.5377,19.5676c3.5838,6.2838,4.8952,11.4616,7.2092,20.5975,2.77,10.937,4.8,18.9512,3.6045,29.3514-.8275,7.1994-1.7356,15.1-7.724,20.5975-1.8291,1.6791-6.4984,5.3064-21.1125,5.6643-20.7109.5071-37.5673-6.1355-47.3741-10.8137-14.621-6.9747-11.8636-8.7676-26.7767-16.478-21.6583-11.1977-27.3672-7.3607-49.434-18.0228-10.106-4.8829-21.6052-10.5635-32.9559-22.1423-12.8054-13.0627-18.3229-26.3912-23.1722-38.1052-3.4675-8.3763-5.23-19.1443-8.7539-40.68-.5616-3.4322-1.4371-9.3014,2.06-13.3883,2.5446-2.9739,6.9124-5.4728,9.7838-4.1195,3.1864,1.5017,3.1566,7.0376,3.6046,11.3286.8874,8.5,4.7111,15.2785,12.3585,28.8365,9.2806,16.4535,21.6743,26.3917,27.2917,30.8962,42.4313,34.0247,105.4,33.1579,108.6516,23.6871.1172-.3415.0781-2.8023,0-7.7241-.1027-6.4686-.2877-8.08,0-11.3286.46-5.1948.69-7.7921,2.5747-9.2689,2.6941-2.1111,7.3241-1.0974,10.2987.515C457.1745,317.0476,457.9743,327.9775,459.5937,327.7235Z" transform="translate(-80.29 -8.0913)"/><path class="cls-9" d="M490.49,547.5878c-.9875-.1734-1.5448-31.4111-1.5448-31.4111l-9.7839.5149c1.1748-9.077,3.759-14.8252,10.2988-27.8065,0,0,6.1019-12.1122,16.4779-35.5307,12.9573-29.2442,21.4558-41.8815,21.4558-41.8815s5.3764.8652,23.8587,4.2911c18.6,3.4478,18.3937,1.9387,33.9859,5.1494,16.4787,3.3933,15.6287,4.8563,28.3215,6.6942,7.9642,1.1531,11.6543,1.063,17.5078,3.6045,9.7552,4.2357,16.8655,12.0232,15.963,13.3884-.9277,1.4037-9.8478-4.7052-20.5975-8.239-21.4114-7.0387-41.33-.9841-53.0384,2.5747-6.2024,1.8853-46.8671,14.9068-67.4568,53.5534C492.2059,518.2646,491.492,547.7638,490.49,547.5878Z" transform="translate(-80.29 -8.0913)"/><path class="cls-4" d="M240.7455,474.4668l9.2689-21.6273" transform="translate(-80.29 -8.0913)"/><path class="cls-10" d="M462.6833,295.7837c4.1105,5.1961,2.9345,12.495,2.5747,14.9332a27.45,27.45,0,0,1-1.3829,5.3884l.0016.004,2.8351,2.2819a23.5472,23.5472,0,0,0,7.3-7.6743c6.5779-11.3266-.1805-25.09-.515-25.7468a31.2255,31.2255,0,0,0-15.963-14.4183c-9.2839-3.7784-17.5433-1.8963-21.1124-1.03-6.5791,1.5973-11.4235,5.1843-21.1124,12.3585-9.4757,7.0164-14.2136,10.5245-17.5078,15.963-3.6054,5.9522-4.3408,11.2583-5.6643,21.6275-1.6884,13.2272-3.7941,29.7233,1.5448,31.926,4.2322,1.7462,13.5551-5.32,15.963-13.9033,2.3474-8.3682-3.3748-12.8405-1.03-24.717a25.7178,25.7178,0,0,1,4.6345-11.3286c4.883-6.387,11.8719-8.1856,20.0825-10.2987,6.2456-1.6074,12.3361-3.0946,19.5676-1.03C455.7577,290.9354,459.75,292.0753,462.6833,295.7837Z" transform="translate(-80.29 -8.0913)"/><path d="M488.9879,190.565a22.2062,22.2062,0,0,0-1.2014-6.6942c-.7572-2.165-2.0379-4.0618-7.08-5.4926-6.1924-1.7573-9.92-.5019-25.4035-.1717a66.9357,66.9357,0,0,0-15.7914,2.7463,7.73,7.73,0,0,0-4.2912,2.5747,5.3172,5.3172,0,0,0-.9313,2.2314H417.533a16.8591,16.8591,0,0,0-4.7985-2.7463,17.2736,17.2736,0,0,0-7.2092-1.03c-22.153,1.1807-32.9738,2.32-39.6716,3.8835,0,0-10.2558,2.2314-10.7922,4.3555-.4907,1.6054-2.6605,2.2314-2.6605,2.2314l-86.2279,30.6215a2.6157,2.6157,0,0,0-1.74,2.465h0a2.6158,2.6158,0,0,0,3.4256,2.4873l85.1434-27.7211h0c-.2727,4.1979-.1972,9.31,2.5748,17.2075,1.864,5.3107,3.878,11.0484,9.2688,14.9332,4.8734,3.512,9.7772,3.543,19.5676,3.6046,11.7691.0741,19.2083.1208,25.7468-5.1494a27.2962,27.2962,0,0,0,8.754-13.9033c1.814-7.0371,1.7164-7.9919,2.0247-19.2243.0875-3.1875.4393-4.98-.1976-7.2091h13.5723c.095.68.2207,1.4161.392,2.2313.9223,4.39,2.31,7.3618,4.2911,11.6719,5.3708,11.6878,4.81,10.83,5.321,11.6719,2.5414,4.1891,6.2037,10.2257,13.56,13.7318a27.3792,27.3792,0,0,0,15.7915,2.2313c.8931-.1387,12.58-2.4053,14.976-10.8137a11.746,11.746,0,0,0,.3433-3.09C489.629,203.0082,489.2382,199.6734,488.9879,190.565Zm-73.1733,4.7266c-.0379.7054-.0811,1.474-.1045,2.3407l-.06,2.25c-.2433,9.1044-.2649,9.8477-1.802,15.8112a21.9976,21.9976,0,0,1-6.9717,11.1361c-4.2526,3.4291-9.1791,4.0075-18.6087,4.0075-.0018,0-2.4939-.0081-3.8219-.0162-9.8945-.0622-11.34-.1973-14.6985-2.6174-4.058-2.9245-5.6761-7.5375-7.39-12.4217-1.9028-5.4166-4.2329-19.8206-1.5893-21.44,9.14-5.6,24.8-6.0565,45.0361-7.1359.24-.0126.5658-.03.9586-.03a11.579,11.579,0,0,1,4.1174.7271c2.3732.9037,4.1715,2.311,4.6923,3.6724C415.9461,192.5517,415.93,193.1986,415.8146,195.2916Zm69.793,22.6874-.0162.4081a5.754,5.754,0,0,1-.1316,1.4668c-1.155,4.0526-8.9827,6.52-12.5938,7.0808a22.484,22.484,0,0,1-3.4525.2631c-3.312,0-4.59-.6893-7.44-2.048-5.9483-2.8335-8.9359-7.7618-11.3379-11.7216-.0847-.1586-.164-.3442-.3225-.7046-.5154-1.1757-1.6669-3.7976-4.7175-10.44l-.1262-.273c-1.883-4.0958-3.0182-6.5681-3.8-10.29-.8271-3.9327.692-5.6112,1.1695-5.7518a57.3243,57.3243,0,0,1,12.5866-2.5335c5.24-.1117,9.1322-.3271,12.2586-.4992,2.4543-.136,4.3914-.2423,6.0167-.2423a18.8991,18.8991,0,0,1,5.577.7162c3.8887,1.1028,4.0195,1.1148,5.58,2.3539.5793.6115.6994,3.2313.7463,4.9458.0486,1.7515.1027,3.2913.1532,4.7437C485.9662,201.5119,486.1175,205.8888,485.6076,217.979Z" transform="translate(-80.29 -8.0913)"/></g><g id="details"><path class="cls-11" d="M365.7615,91.1042a2,2,0,0,1-1.2705-3.5454,121.7192,121.7192,0,0,1,21.1865-13.9971A99.69,99.69,0,0,1,406.5428,65.22a62.7166,62.7166,0,0,1,15.331-2.6724c4.7764-.1728,12.7676-.4663,21.0391,3.5484a16.6292,16.6292,0,0,1,3.8418,2.4526,47.3737,47.3737,0,0,0,6.3584,4.3281c.6191.37,1.2109.7163,1.7793,1.0489,3.4375,2.0112,6.1523,3.6,8.792,6.8481a23.8933,23.8933,0,0,1,3.249,5.2778,2,2,0,1,1-3.6484,1.6407,19.9047,19.9047,0,0,0-2.7041-4.3955c-2.1827-2.6856-4.5-4.0415-7.7081-5.9185-.5791-.3389-1.1826-.6919-1.8125-1.0688a50.9071,50.9071,0,0,1-6.8242-4.6529,12.7127,12.7127,0,0,0-3.0693-1.9619c-7.375-3.5791-14.459-3.3208-19.1455-3.15a59.4351,59.4351,0,0,0-14.4375,2.5376,95.9781,95.9781,0,0,0-20.0645,8.03A117.7233,117.7233,0,0,0,367.03,90.6491,1.99,1.99,0,0,1,365.7615,91.1042Z" transform="translate(-80.29 -8.0913)"/><path d="M232.181,190.8254a2,2,0,0,1-1.28-3.5381c5.1577-4.2881,10.2632-8.771,15.1748-13.3242,4.0161-3.7227,8.0009-7.5835,11.8437-11.4737a2,2,0,1,1,2.8457,2.8106c-3.8838,3.9321-7.9111,7.834-11.97,11.5967-4.9648,4.6015-10.1245,9.1328-15.3369,13.4663A1.9907,1.9907,0,0,1,232.181,190.8254Z" transform="translate(-80.29 -8.0913)"/><path d="M199.0618,216.1281a2.0009,2.0009,0,0,1-1.75-2.9648,167.1331,167.1331,0,0,1,21.0908-30.1285,125.2379,125.2379,0,0,1,10.2637-10.3232c3.7559-3.4727,8.43-7.7944,16.9658-16.5391,3.6944-3.7846,6.25-6.4917,8.3042-8.667a95.2523,95.2523,0,0,1,10.0874-9.7114c8.3741-6.9067,15.0723-10.6,22.8277-14.8774l2.4047-1.3286c13.2813-7.3663,26.8843-15.6031,40.4322-24.482a2,2,0,0,1,2.1924,3.3457c-13.6294,8.9326-27.3174,17.2207-40.6841,24.6343L288.783,126.42c-7.5806,4.18-14.1274,7.791-22.2144,14.46a91.0285,91.0285,0,0,0-9.7241,9.3715c-2.0639,2.1861-4.6328,4.9068-8.35,8.7149-8.6074,8.8178-13.5229,13.3633-17.1123,16.6821a120.3858,120.3858,0,0,0-9.9834,10.0366,163.128,163.128,0,0,0-20.583,29.4068A2,2,0,0,1,199.0618,216.1281Z" transform="translate(-80.29 -8.0913)"/><path class="cls-4" d="M246.3177,302.08a1.9961,1.9961,0,0,1-.8614-.1953,43.1143,43.1143,0,0,1-13.2622-9.7544c-5.84-6.3681-7.9838-12.7129-10.4663-20.059a30.9514,30.9514,0,0,1-1.959-13.0972c.2564-2.896.608-6.8613,3.7676-9.2363,3.2285-2.4283,7.3306-1.6011,9.7827-1.106a24.4611,24.4611,0,0,1,9.7447,4.833,39.11,39.11,0,0,1,9.8037,10.9751,2,2,0,0,1-3.4219,2.0723,35.1155,35.1155,0,0,0-8.8008-9.8618,20.6691,20.6691,0,0,0-8.1167-4.0977c-2.0229-.4082-4.7929-.9663-6.5884.3823-1.6079,1.209-1.9311,3.51-2.1865,6.3921a26.7764,26.7764,0,0,0,1.7632,11.4624c2.4341,7.2031,4.3564,12.8916,9.626,18.6367a39.1074,39.1074,0,0,0,12.04,8.8492,2,2,0,0,1-.8642,3.8046Z" transform="translate(-80.29 -8.0913)"/></g></svg>